<svg xmlns="http://www.w3.org/2000/svg" xmlns:xlink="http://www.w3.org/1999/xlink" width="1440" height="629" version="1.1" viewBox="0 0 1440 629"><title>footer copy</title><desc>Created with Sketch.</desc><defs><radialGradient id="radialGradient-1" cx="50.435%" cy="40.021%" r="40.997%" fx="50.435%" fy="40.021%"><stop offset="0%" stop-color="#0B1E39"/><stop offset="100%" stop-color="#1D3657"/></radialGradient><linearGradient id="linearGradient-2" x1="67.14%" x2="-15.229%" y1="88.582%" y2="-69.513%"><stop offset="0%" stop-color="#1D3657"/><stop offset="100%" stop-color="#15517B"/></linearGradient><filter id="filter-3" width="200%" height="200%" x="-50%" y="-50%" filterUnits="objectBoundingBox"><feOffset dx="0" dy="8" in="SourceAlpha" result="shadowOffsetOuter1"/><feGaussianBlur in="shadowOffsetOuter1" result="shadowBlurOuter1" stdDeviation="9"/><feColorMatrix in="shadowBlurOuter1" result="shadowMatrixOuter1" type="matrix" values="0 0 0 0 0 0 0 0 0 0 0 0 0 0 0 0 0 0 0.35 0"/><feMerge><feMergeNode in="shadowMatrixOuter1"/><feMergeNode in="SourceGraphic"/></feMerge></filter></defs><g id="Page-1" fill="none" fill-rule="evenodd" stroke="none" stroke-width="1"><g id="footer-copy"><rect id="Rectangle-90" width="1440" height="629" x="0" y="0" fill="url(#radialGradient-1)"/><rect id="Rectangle-89-Copy-13" width="215.041" height="215.041" x="927.536" y="81.536" fill="#1D3657" transform="translate(1035.057089, 189.057089) rotate(-315.000000) translate(-1035.057089, -189.057089)"/><path id="Rectangle-89-Copy-7" fill="#1D3657" d="M322.008622,89.6227996 L517.8772,89.6227996 L517.8772,285.491378 L322.008622,285.491378 L322.008622,89.6227996 Z" transform="translate(419.942911, 187.557089) rotate(-315.000000) translate(-419.942911, -187.557089)"/><path id="Rectangle-89-Copy-17" fill="#1D3657" d="M178.565711,-52.4342892 L374.434289,-52.4342892 L374.434289,143.434289 L178.565711,143.434289 L178.565711,-52.4342892 Z" transform="translate(276.500000, 45.500000) rotate(-315.000000) translate(-276.500000, -45.500000)"/><path id="Rectangle-89-Copy-7" fill="#1D3657" d="M308.732603,285.482603 L396.767397,285.482603 L396.767397,373.517397 L308.732603,373.517397 L308.732603,285.482603 Z" transform="translate(352.750000, 329.500000) rotate(-315.000000) translate(-352.750000, -329.500000)"/><path id="Rectangle-89-Copy-7" fill="#1D3657" d="M-28.1304336,107.244566 L283.880434,107.244566 L283.880434,419.255434 L-28.1304336,419.255434 L-28.1304336,107.244566 Z" transform="translate(127.875000, 263.250000) rotate(-315.000000) translate(-127.875000, -263.250000)"/><path id="Rectangle-89-Copy-7" fill="#1D3657" d="M242.232603,352.232603 L330.267397,352.232603 L330.267397,440.267397 L242.232603,440.267397 L242.232603,352.232603 Z" transform="translate(286.250000, 396.250000) rotate(-315.000000) translate(-286.250000, -396.250000)"/><rect id="Rectangle-89-Copy-9" width="606.778" height="606.778" x="417.668" y="-389.503" fill="#1D3657" transform="translate(721.057089, -86.114178) rotate(-315.000000) translate(-721.057089, 86.114178)"/><rect id="Rectangle-89-Copy" width="370.605" height="381.676" x="803.669" y="381.133" fill="#1D3657" transform="translate(988.971456, 571.971456) rotate(-315.000000) translate(-988.971456, -571.971456)"/><rect id="Rectangle-89-Copy-6" width="215.041" height="215.041" x="339.594" y="350.536" fill="#1D3657" transform="translate(447.114178, 458.057089) rotate(-315.000000) translate(-447.114178, -458.057089)"/><rect id="Rectangle-89-Copy-14" width="212.88" height="212.88" x="1083.56" y="-72.911" fill="#1D3657" transform="translate(1190.000000, 33.528544) rotate(-315.000000) translate(-1190.000000, -33.528544)"/><rect id="Rectangle-89-Copy-11" width="215.587" height="215.587" x="494.649" y="507.649" fill="#1D3657" transform="translate(602.442911, 615.442911) rotate(-315.000000) translate(-602.442911, -615.442911)"/><rect id="Rectangle-89-Copy-10" width="381.676" height="381.676" x="-275.952" y="-204.952" fill="#1D3657" transform="translate(-85.114178, -14.114178) rotate(-315.000000) translate(85.114178, 14.114178)"/><rect id="Rectangle-89-Copy-8" width="381.676" height="381.676" x="-53.952" y="389.048" fill="#1D3657" transform="translate(136.885822, 579.885822) rotate(-315.000000) translate(-136.885822, -579.885822)"/><rect id="Rectangle-89-Copy-2" width="381.676" height="381.676" x="1118.048" y="154" fill="#1D3657" transform="translate(1308.885822, 344.838095) rotate(-315.000000) translate(-1308.885822, -344.838095)"/><rect id="Rectangle-89-Copy-3" width="381.676" height="381.676" x="1423.048" y="441" fill="#1D3657" transform="translate(1613.885822, 631.838095) rotate(-315.000000) translate(-1613.885822, -631.838095)"/><rect id="Rectangle-89" width="381.676" height="381.676" x="529.048" y="92.276" fill="url(#linearGradient-2)" stroke="#46AEDA" stroke-opacity=".159" filter="url(#filter-3)" transform="translate(719.885822, 283.114178) rotate(-315.000000) translate(-719.885822, -283.114178)"/></g></g></svg>